<svg fill="none" xmlns="http://www.w3.org/2000/svg">
<path d="M17.4137 93.0559C12.8132 89.9889 9.36278 86.3493 7.0625 82.1377C4.79818 77.9069 3.66602 73.3074 3.66602 68.34V55.4458C3.66602 50.4349 4.79818 47.3451 7.0625 46.1766C9.36278 45.032 12.8132 45.9932 17.4137 49.0603C22.0143 52.1273 25.4467 55.7545 27.711 59.9422C30.0113 64.1539 31.1614 68.7653 31.1614 73.7759V86.6701C31.1614 91.6379 30.0113 94.7157 27.711 95.9033C25.4467 97.0719 22.0143 96.123 17.4137 93.0559ZM17.4137 87.2892C20.1453 89.1103 22.2119 89.6455 23.6137 88.8955C25.0154 88.102 25.7162 86.0853 25.7162 82.8456V70.3402C25.7162 67.0573 25.0154 64.1063 23.6137 61.4873C22.2119 58.8679 20.1453 56.648 17.4137 54.827C14.7181 53.0299 12.6514 52.4944 11.2138 53.2207C9.81203 53.9707 9.11118 55.9875 9.11118 59.2703V71.7757C9.11118 75.0154 9.81203 77.9665 11.2138 80.6289C12.6514 83.2719 14.7181 85.4921 17.4137 87.2892Z" fill="black"/>
<mask id="mask0_880_42" style="mask-type:luminance" maskUnits="userSpaceOnUse" x="2" y="38" width="30" height="66">
<path d="M31.8081 38.5859H2.96484V103.495H31.8081V38.5859Z" fill="white"/>
<path d="M17.4137 93.0559C12.8132 89.9889 9.36278 86.3493 7.0625 82.1377C4.79818 77.9069 3.66602 73.3074 3.66602 68.34V55.4458C3.66602 50.4349 4.79818 47.3451 7.0625 46.1766C9.36278 45.032 12.8132 45.9932 17.4137 49.0603C22.0143 52.1273 25.4467 55.7545 27.711 59.9422C30.0113 64.1539 31.1614 68.7653 31.1614 73.7759V86.6701C31.1614 91.6379 30.0113 94.7157 27.711 95.9033C25.4467 97.0719 22.0143 96.123 17.4137 93.0559ZM17.4137 87.2892C20.1453 89.1103 22.2119 89.6455 23.6137 88.8955C25.0154 88.102 25.7162 86.0853 25.7162 82.8456V70.3402C25.7162 67.0573 25.0154 64.1063 23.6137 61.4873C22.2119 58.8679 20.1453 56.648 17.4137 54.827C14.7181 53.0299 12.6514 52.4944 11.2138 53.2207C9.81203 53.9707 9.11118 55.9875 9.11118 59.2703V71.7757C9.11118 75.0154 9.81203 77.9665 11.2138 80.6289C12.6514 83.2719 14.7181 85.4921 17.4137 87.2892Z" fill="black"/>
</mask>
<g mask="url(#mask0_880_42)">
<path d="M7.06256 82.1377L6.68134 82.3418L6.68439 82.3473L6.68743 82.3531L7.06256 82.1377ZM7.06256 46.1765L6.68743 45.4612L6.68591 45.4618L6.68442 45.4625L7.06256 46.1765ZM27.7111 59.9422L27.3329 60.1518L27.3344 60.1547L27.336 60.1576L27.7111 59.9422ZM23.6137 88.8954L23.9949 89.6075L23.9974 89.6062L23.9997 89.6049L23.6137 88.8954ZM11.2138 53.2207L10.8375 52.5057L10.835 52.507L10.8326 52.5083L11.2138 53.2207ZM11.2138 80.6289L10.8278 80.8236L10.8326 80.8327L10.8375 80.8418L11.2138 80.6289ZM17.4138 92.408C12.8921 89.3934 9.60071 85.8828 7.43769 81.9225L6.68743 82.3531C9.12498 86.8162 12.7343 90.584 17.4138 93.7039V92.408ZM7.44379 81.9336C5.30763 77.9422 4.20521 73.5472 4.20521 68.6992L3.12695 67.9806C3.12695 73.0677 4.28886 77.8712 6.68134 82.3418L7.44379 81.9336ZM4.20521 68.6992V55.805L3.12695 55.0865V67.9806L4.20521 68.6992ZM4.20521 55.805C4.20521 50.9114 5.30863 47.9908 7.44074 46.8906L6.68442 45.4625C4.28786 46.6994 3.12695 49.9583 3.12695 55.0865L4.20521 55.805ZM7.43769 46.8922C9.60071 45.8156 12.8921 46.6936 17.4138 49.7082V48.4123C12.7343 45.2924 9.12498 44.2482 6.68743 45.4612L7.43769 46.8922ZM17.4138 49.7082C21.9362 52.7231 25.2071 56.2204 27.3329 60.1518L28.0892 59.7326C25.6865 55.2886 22.0924 51.5312 17.4138 48.4123V49.7082ZM27.336 60.1576C29.5023 64.1241 30.6223 68.5259 30.6223 73.4166L31.7006 74.1355C31.7006 69.0047 30.5204 64.1837 28.0862 59.7271L27.336 60.1576ZM30.6223 73.4166V86.3108L31.7006 87.0297V74.1355L30.6223 73.4166ZM30.6223 86.3108C30.6223 91.1558 29.5034 94.0687 27.3329 95.1896L28.0892 96.6174C30.5193 95.3623 31.7006 92.1196 31.7006 87.0297L30.6223 86.3108ZM27.3329 95.1896C25.207 96.2866 21.9362 95.4229 17.4138 92.408V93.7039C22.0924 96.8228 25.6864 97.8575 28.0892 96.6174L27.3329 95.1896ZM17.4138 87.9371C20.2332 89.8165 22.4589 90.4298 23.9949 89.6075L23.2325 88.183C21.9651 88.8614 20.0575 88.4036 17.4138 86.6412V87.9371ZM23.9997 89.6049C25.5294 88.7393 26.2554 86.5544 26.2554 83.2052L25.1772 82.4863C25.1772 85.6165 24.5014 87.4648 23.2277 88.1856L23.9997 89.6049ZM26.2554 83.2052V70.6998L25.1772 69.9809V82.4863L26.2554 83.2052ZM26.2554 70.6998C26.2554 67.3113 25.5311 64.1532 23.9949 61.2831L23.2325 61.691C24.4999 64.0593 25.1772 66.8033 25.1772 69.9809L26.2554 70.6998ZM23.9949 61.2831C22.4589 58.413 20.2332 56.0584 17.4138 54.179V55.4749C20.0575 57.2373 21.9651 59.3231 23.2325 61.691L23.9949 61.2831ZM17.4138 54.179C14.627 52.321 12.4064 51.7133 10.8375 52.5057L11.5902 53.9354C12.8966 53.2755 14.8093 53.7384 17.4138 55.4749V54.179ZM10.8326 52.5083C9.29653 53.3302 8.57212 55.5222 8.57212 58.9107L9.65037 59.6296C9.65037 56.4523 10.3277 54.6112 11.5951 53.9328L10.8326 52.5083ZM8.57212 58.9107V71.4161L9.65037 72.135V59.6296L8.57212 58.9107ZM8.57212 71.4161C8.57212 74.7656 9.29812 77.9182 10.8278 80.8236L11.5999 80.4339C10.3261 78.0144 9.65037 75.2652 9.65037 72.135L8.57212 71.4161ZM10.8375 80.8418C12.4064 83.7261 14.627 86.0791 17.4138 87.9371V86.6412C14.8093 84.9047 12.8966 82.8174 11.5902 80.4157L10.8375 80.8418Z" fill="black"/>
</g>
<path d="M66.9153 77.3525V84.6743L56.6826 78.3073V116.212L48.9808 111.42V73.5151L38.748 67.148V59.8262L66.9153 77.3525Z" fill="black"/>
<path d="M97.214 98.0694L81.6173 107.081L79.0365 117.19L70.7891 121.955L84.8712 68.5269L94.0161 63.2432L108.098 100.398L99.7948 105.196L97.214 98.0694ZM95.0819 92.0441L89.4156 76.3978L83.749 98.592L95.0819 92.0441Z" fill="black"/>
<path d="M129.061 88.58C126.331 90.1574 123.862 91.0438 121.655 91.2388C119.486 91.4125 117.766 90.8514 116.494 89.5558C115.222 88.2605 114.568 86.2412 114.53 83.4981L122.946 78.6359C123.058 80.4285 123.619 81.5731 124.629 82.0694C125.676 82.5443 127.098 82.2631 128.893 81.2258C130.726 80.167 132.165 78.8381 133.213 77.2396C134.26 75.5977 134.784 73.9561 134.784 72.3145C134.784 70.9756 134.428 70.0794 133.718 69.6259C133.007 69.1726 132.109 69.0217 131.025 69.1733C129.978 69.2601 128.519 69.5413 126.649 70.0169C124.105 70.6228 122.03 70.9798 120.421 71.0883C118.85 71.1317 117.485 70.6464 116.326 69.6317C115.203 68.5519 114.643 66.5867 114.643 63.7357C114.643 61.0577 115.222 58.3901 116.382 55.7332C117.541 53.076 119.168 50.6242 121.263 48.3774C123.357 46.0872 125.751 44.1641 128.444 42.6084C132.484 40.2745 135.756 39.528 138.262 40.3697C140.806 41.1463 142.208 43.4893 142.47 47.3987L133.83 52.3905C133.755 50.8788 133.176 49.9393 132.091 49.5725C131.044 49.141 129.641 49.4329 127.883 50.4486C126.349 51.3346 125.115 52.5013 124.18 53.9488C123.282 55.3746 122.834 56.9514 122.834 58.6791C122.834 59.8885 123.17 60.7091 123.844 61.141C124.554 61.5081 125.415 61.659 126.424 61.5939C127.472 61.464 128.93 61.1825 130.801 60.75C133.344 60.1445 135.419 59.8091 137.028 59.7437C138.636 59.6783 140.02 60.1746 141.18 61.2327C142.339 62.2905 142.919 64.2236 142.919 67.0312C142.919 69.4503 142.376 72.0097 141.292 74.71C140.207 77.41 138.617 79.9918 136.523 82.4546C134.428 84.874 131.941 86.9161 129.061 88.58Z" fill="black"/>
<path d="M35.1274 34.5809L37.8627 36.4182L33.1667 39.1311L47.3266 48.6417L43.7921 50.6837L29.6322 41.1735L24.9363 43.8864L22.2012 42.0495L35.1274 34.5809ZM60.6083 32.2279C61.0923 32.5528 61.4943 32.8651 61.8141 33.1642L51.5895 39.0718C52.6418 39.6735 53.7536 39.9786 54.9251 39.9874C56.0963 39.9958 57.1366 39.7376 58.0453 39.2128C59.3584 38.454 59.7517 37.5514 59.2262 36.5044L63.0384 34.3016C63.9251 35.4022 64.216 36.5646 63.9105 37.7896C63.5892 39.0035 62.5952 40.092 60.929 41.0546C59.5826 41.8328 58.0881 42.343 56.4462 42.5863C54.8049 42.8086 53.1569 42.7428 51.502 42.3884C49.864 42.0242 48.3595 41.3815 46.9878 40.4604C45.5998 39.5283 44.6762 38.5399 44.2165 37.4951C43.7568 36.4502 43.7746 35.4317 44.2703 34.4397C44.7656 33.4477 45.7035 32.5532 47.0836 31.7556C48.4132 30.9874 49.8744 30.4861 51.4664 30.2516C53.0756 30.0075 54.6744 30.0615 56.2631 30.4136C57.8529 30.7452 59.301 31.35 60.6083 32.2279ZM55.9793 33.6926C55.091 33.1172 54.0689 32.8409 52.9129 32.8635C51.7408 32.8752 50.6921 33.1486 49.7662 33.6835C48.8911 34.1892 48.4087 34.7905 48.3193 35.4874C48.2302 36.1639 48.5704 36.8442 49.3395 37.5291L55.9793 33.6926ZM62.5696 31.4574C61.182 30.5254 60.2662 29.5423 59.8226 28.5083C59.3626 27.4635 59.3723 26.45 59.8508 25.4677C60.3135 24.4746 61.218 23.5891 62.5648 22.8111C64.2983 21.8095 66.1482 21.2647 68.1151 21.1767C70.0826 21.0682 72.0102 21.4061 73.898 22.1903L70.0858 24.3929C69.3031 24.1195 68.5061 24.0154 67.6952 24.0806C66.8853 24.1253 66.1265 24.3519 65.4196 24.7603C64.4098 25.3438 63.9653 26.0441 64.0865 26.8614C64.1911 27.6678 64.8889 28.5045 66.18 29.3715C67.4548 30.2277 68.7416 30.7241 70.0408 30.8606C71.3237 30.9863 72.4703 30.7574 73.4801 30.1739C74.9108 29.3473 75.2315 28.3957 74.4426 27.3192L78.2551 25.1166C79.32 26.3157 79.7082 27.5331 79.4189 28.7688C79.1296 30.0045 78.1265 31.1182 76.4098 32.1102C75.0634 32.8882 73.586 33.389 71.9775 33.6126C70.3531 33.8254 68.73 33.7551 67.1082 33.4016C65.4702 33.0375 63.9575 32.3895 62.5696 31.4574ZM79.6443 12.973C80.7047 12.3603 81.8733 11.9675 83.1497 11.7945C84.4103 11.6106 85.7033 11.68 87.029 12.0027C88.3557 12.3048 89.624 12.8623 90.8344 13.6752L98.7008 18.9587L95.1663 21.0009L87.7596 16.0262C86.6947 15.3109 85.6019 14.924 84.4819 14.8656C83.3454 14.7963 82.2977 15.0389 81.3384 15.5932C80.3619 16.1572 79.8783 16.7996 79.887 17.5204C79.8964 18.2207 80.4336 18.9285 81.4985 19.6438L88.9051 24.6184L85.3706 26.6606L67.459 14.6304L70.9936 12.5882L77.1659 16.7337C77.0393 16.081 77.1935 15.4275 77.6283 14.7731C78.0465 14.1079 78.7188 13.5079 79.6443 12.973Z" fill="#007FFF"/>
<path d="M66.3726 65.4633C65.3145 66.0747 64.3066 66.4751 63.3483 66.6646C62.3913 66.8376 61.5075 66.826 60.6969 66.6293C59.8876 66.4165 59.1628 66.0358 58.523 65.4873C58.3332 65.3279 58.3157 65.2032 58.4705 65.1138L59.9611 64.2527C60.116 64.1632 60.2828 64.1856 60.4617 64.3197C61.1174 64.8115 61.8071 65.0461 62.5309 65.0237C63.255 65.001 64.062 64.7328 64.9523 64.2183C65.804 63.7262 66.3055 63.2545 66.4571 62.8025C66.6217 62.3435 66.4238 61.9038 65.8636 61.4836C65.5892 61.2779 65.3051 61.1334 65.0112 61.0498C64.7184 60.9501 64.3717 60.9128 63.9716 60.9384C63.5712 60.9637 63.0936 61.034 62.5387 61.1487L58.6024 61.9745C57.7574 62.1462 57.0049 62.2327 56.3446 62.2343C55.6973 62.2285 55.1047 62.1355 54.5676 61.955C54.0431 61.7674 53.5422 61.4947 53.0653 61.137C52.0769 60.3786 51.6752 59.5975 51.8602 58.794C52.0584 57.9831 52.8476 57.1787 54.2284 56.3811C55.1832 55.8293 56.1279 55.4496 57.0622 55.2423C58.0092 55.0275 58.8949 55.0064 59.7194 55.1791C60.5566 55.3447 61.3008 55.714 61.9513 56.2877C62.1402 56.4637 62.17 56.589 62.041 56.6636L60.5313 57.5357C60.4668 57.573 60.3914 57.5849 60.3049 57.5717C60.2313 57.5506 60.1416 57.492 60.0353 57.3951C59.5254 56.9613 58.8897 56.7588 58.1281 56.7873C57.3667 56.8155 56.5665 57.0721 55.7278 57.5568C54.992 57.9818 54.5624 58.3962 54.4387 58.8002C54.3029 59.1951 54.473 59.5797 54.9489 59.9538C55.211 60.1505 55.4893 60.2908 55.7832 60.374C56.0773 60.4576 56.4305 60.491 56.8422 60.4745C57.2543 60.4579 57.7568 60.3893 58.3497 60.2684L62.2471 59.465C63.08 59.2845 63.8203 59.1974 64.4676 59.2032C65.1282 59.2016 65.7204 59.2946 66.2449 59.4821C66.7694 59.67 67.294 59.9606 67.8185 60.354C68.8319 61.114 69.2504 61.9249 69.0742 62.7867C68.8863 63.639 67.9856 64.5316 66.3726 65.4633ZM77.2568 59.175C75.9275 59.9428 74.6103 60.3083 73.3043 60.2713C71.9984 60.2341 70.7436 59.7643 69.5394 58.8611L67.5363 57.3588C66.3324 56.4559 65.7807 55.5792 65.8811 54.7298C65.9948 53.8725 66.7228 53.0561 68.0647 52.2808C69.3936 51.513 70.7048 51.1511 71.9977 51.1958C73.3033 51.2328 74.5584 51.7029 75.7626 52.6061L77.7654 54.1081C78.9697 55.0113 79.5214 55.8876 79.4206 56.7374C79.3199 57.5869 78.5987 58.3994 77.2568 59.175ZM75.7008 58.008C76.4621 57.5681 76.8318 57.1171 76.8097 56.6551C76.8003 56.1854 76.42 55.669 75.669 55.1059L73.9879 53.845C73.2489 53.2907 72.5261 52.98 71.8202 52.9129C71.1149 52.8297 70.3817 53.0078 69.6204 53.4478C68.8461 53.8952 68.4697 54.3582 68.491 54.8367C68.5131 55.2987 68.8937 55.807 69.633 56.3613L71.3138 57.6219C72.0651 58.1853 72.7873 58.5041 73.4802 58.5786C74.1865 58.6456 74.9265 58.4555 75.7008 58.008ZM83.8179 55.0991C83.6757 55.1811 83.5393 55.173 83.4081 55.0745L71.5873 46.2089C71.456 46.1104 71.4616 46.0204 71.6035 45.9384L73.1132 45.0659C73.2551 44.984 73.3918 44.9924 73.5227 45.0906L85.3438 53.9564C85.4747 54.0546 85.4695 54.1447 85.3276 54.227L83.8179 55.0991ZM91.0438 51.2091C90.2051 51.6938 89.3158 51.8749 88.3762 51.7528C87.4251 51.6219 86.4664 51.1942 85.5006 50.4701L79.6886 46.1111C79.5577 46.0126 79.5628 45.9225 79.7048 45.8402L81.2145 44.9681C81.3567 44.8861 81.4931 44.8942 81.6243 44.9927L87.2397 49.2041C87.7879 49.6155 88.2965 49.8598 88.7653 49.9372C89.2341 50.0146 89.688 49.9265 90.1267 49.6732C90.5912 49.4046 90.9181 49.0417 91.1073 48.584C91.2978 48.11 91.4116 47.4585 91.4485 46.6298L92.9508 47.7565C92.9333 48.2574 92.8558 48.7217 92.7178 49.1496C92.5801 49.5773 92.3764 49.9641 92.1065 50.3101C91.8366 50.6558 91.4825 50.9555 91.0438 51.2091ZM94.6808 48.8227C94.6033 48.8674 94.5334 48.8921 94.4708 48.8966C94.3963 48.8921 94.3231 48.8713 94.2505 48.8341C93.9852 48.6863 93.7205 48.5305 93.4562 48.3669C93.1918 48.203 92.9281 48.0306 92.665 47.8505L91.7067 47.3117L85.5729 42.7113C85.4417 42.6128 85.4472 42.5227 85.5891 42.4408L87.0988 41.5683C87.2407 41.4863 87.3771 41.4944 87.5083 41.5929L93.8747 46.3677C94.2087 46.6181 94.5547 46.8692 94.9137 47.1209C95.2733 47.3564 95.6397 47.58 96.0133 47.7915C96.1701 47.8751 96.1584 47.9691 95.9776 48.0734L94.6808 48.8227ZM102.521 44.578C101.811 44.9882 101.148 45.2363 100.533 45.3228C99.9052 45.4006 99.2799 45.3342 98.6572 45.1243C98.0355 44.8978 97.3967 44.5388 96.7409 44.047L92.1985 40.6401L90.7276 41.4899C90.5984 41.5647 90.4685 41.5528 90.3373 41.4543L89.2105 40.6093C89.0796 40.5109 89.0783 40.4247 89.2076 40.3498L90.7367 39.4664L88.8227 37.7227C88.7164 37.6259 88.7342 37.5365 88.8761 37.4545L90.057 36.7722C90.1989 36.6902 90.3295 36.6941 90.4487 36.7835L92.6141 38.3817L95.3819 36.7826C95.5238 36.7006 95.6605 36.7087 95.7917 36.8069L96.9181 37.6521C97.0494 37.7503 97.0438 37.8407 96.9019 37.9226L94.1342 39.5218L98.6051 42.8749C99.1296 43.2682 99.6019 43.494 100.022 43.552C100.443 43.5938 100.899 43.473 101.389 43.1898C101.634 43.0479 101.856 42.8885 102.053 42.711C102.251 42.5172 102.406 42.3332 102.516 42.1586C102.57 42.0961 102.634 42.0669 102.708 42.0714C102.783 42.0595 102.851 42.076 102.911 42.1207L104.073 42.9925C104.18 43.0728 104.2 43.1564 104.133 43.2429C103.971 43.447 103.759 43.6647 103.496 43.8957C103.246 44.1196 102.921 44.347 102.521 44.578ZM106.519 41.9827C106.377 42.0646 106.241 42.0565 106.11 41.9584L97.7401 35.6811C97.6089 35.5829 97.6144 35.4925 97.7563 35.4105L99.266 34.5384C99.4079 34.4564 99.5446 34.4645 99.6758 34.5627L108.045 40.84C108.176 40.9382 108.171 41.0286 108.029 41.1105L106.519 41.9827ZM97.1342 33.9416C96.7341 34.173 96.3421 34.2727 95.9576 34.2416C95.5613 34.2015 95.2082 34.0651 94.8985 33.8325L94.6837 33.6714C94.362 33.4301 94.2023 33.1819 94.2052 32.927C94.2078 32.6723 94.4093 32.4293 94.8094 32.1981C95.2221 31.9595 95.6145 31.8596 95.9857 31.8982C96.3703 31.9295 96.7234 32.0658 97.0451 32.3072L97.2599 32.4682C97.5697 32.7008 97.7294 32.949 97.7384 33.2127C97.7485 33.4602 97.547 33.7032 97.1342 33.9416ZM115.042 37.3434C113.713 38.1115 112.395 38.477 111.089 38.4397C109.784 38.4028 108.529 37.9327 107.325 37.0294L105.322 35.5275C104.117 34.6243 103.566 33.7479 103.667 32.8981C103.78 32.041 104.508 31.2248 105.85 30.4494C107.179 29.6815 108.49 29.3198 109.783 29.3642C111.089 29.4013 112.344 29.8714 113.548 30.7745L115.551 32.2767C116.755 33.1797 117.307 34.0563 117.206 34.9058C117.105 35.7556 116.384 36.5681 115.042 37.3434ZM113.486 36.1764C114.248 35.7368 114.617 35.2858 114.595 34.8235C114.585 34.3541 114.205 33.8376 113.454 33.2743L111.773 32.0135C111.034 31.4591 110.312 31.1485 109.605 31.0815C108.9 30.9982 108.167 31.1764 107.406 31.6163C106.632 32.0636 106.255 32.5265 106.276 33.005C106.298 33.467 106.679 33.9753 107.418 34.5297L109.099 35.7906C109.85 36.3539 110.572 36.6727 111.266 36.7473C111.972 36.814 112.712 36.6238 113.486 36.1764ZM127.739 29.7225C127.597 29.8046 127.46 29.7964 127.329 29.698L121.714 25.4865C121.165 25.0751 120.643 24.8465 120.148 24.8003C119.653 24.7378 119.154 24.8519 118.651 25.1427C118.174 25.4186 117.834 25.789 117.632 26.2542C117.418 26.7103 117.286 27.3483 117.237 28.1682L115.749 27.1042C115.757 26.5616 115.823 26.0801 115.948 25.6597C116.073 25.2393 116.27 24.8644 116.539 24.5349C116.821 24.198 117.187 23.899 117.639 23.6381C118.568 23.1013 119.521 22.8827 120.5 22.9824C121.479 23.0657 122.463 23.4784 123.453 24.2206L129.265 28.5797C129.396 28.678 129.397 28.7645 129.268 28.839L127.739 29.7225ZM121.603 33.2678C121.461 33.3497 121.324 33.3416 121.194 33.2431L114.845 28.4817C114.511 28.2313 114.14 27.9787 113.732 27.7239C113.324 27.4527 112.994 27.2396 112.742 27.0846C112.55 26.9743 112.537 26.8707 112.705 26.7738L114.079 25.9798C114.156 25.935 114.22 25.9141 114.27 25.9171C114.332 25.9127 114.406 25.9335 114.49 25.9797C114.623 26.0453 114.798 26.1421 115.015 26.2703C115.231 26.3984 115.46 26.5355 115.7 26.6816C115.94 26.8276 116.138 26.9587 116.293 27.075L116.924 27.4706L123.129 32.1248C123.26 32.2232 123.255 32.3133 123.113 32.3953L121.603 33.2678Z" fill="#007FFF"/>
</svg>
