<svg width="16" height="32" viewBox="0 0 16 32" fill="none" xmlns="http://www.w3.org/2000/svg">
<path fill-rule="evenodd" clip-rule="evenodd" d="M14.8712 16.5753C14.9282 16.1688 14.9781 15.8138 14.9874 15.6546C14.9905 15.6187 14.9758 15.5832 14.9625 15.5511C14.951 15.5232 14.9405 15.498 14.9438 15.4774C15.1079 14.6144 15.0969 13.6823 15.086 12.76C15.0823 12.451 15.0787 12.1431 15.0816 11.8394C15.08 11.6194 15.0319 11.4006 14.984 11.1826C14.9621 11.0827 14.9401 10.983 14.9227 10.8835C14.9963 10.6646 14.917 10.454 14.8384 10.2454C14.8057 10.1586 14.7731 10.0722 14.7518 9.98565C14.6516 9.56255 14.5973 9.138 14.543 8.71369C14.5277 8.59398 14.5124 8.47429 14.4961 8.35466C14.4631 8.08163 14.4348 7.80979 14.4066 7.53677C14.3784 7.28588 14.3393 7.03701 14.3003 6.78831C14.2968 6.76636 14.2934 6.74441 14.2899 6.72247C14.006 4.95856 13.6419 3.20542 13.0776 1.51456C13.0479 1.42995 13.0449 1.33676 13.0419 1.24355C13.033 0.963438 13.024 0.683216 12.2894 0.635595C12.283 0.634939 12.2737 0.633563 12.2649 0.632257C12.2576 0.631179 12.2506 0.630148 12.2458 0.629607C12.0766 0.601347 11.8362 0.669446 11.5964 0.737367C11.4805 0.770181 11.3648 0.802953 11.2574 0.824798C9.76113 1.13615 9.33346 1.396 9.66923 1.74807C9.73536 1.81853 9.71459 1.91941 9.69433 2.01784C9.69221 2.02815 9.69009 2.03842 9.68808 2.04864C9.64986 2.23659 9.69683 2.48933 9.73585 2.6993C9.74854 2.76759 9.76039 2.83135 9.7682 2.88689C9.79057 3.02155 9.87946 3.14695 9.96676 3.27009C10.0541 3.39334 10.1399 3.51433 10.1558 3.64011C10.1911 3.88171 10.1973 4.12825 10.2034 4.37434C10.204 4.39904 10.2046 4.42374 10.2053 4.44842L10.2147 5.25913C10.2088 5.52976 10.2065 5.7992 10.2159 6.06504C10.2241 6.33089 10.2501 6.59314 10.2783 6.85539C10.316 7.15836 10.3738 7.45773 10.4421 7.7571C10.4637 7.85348 10.4847 7.94997 10.5057 8.04655C10.55 8.24999 10.5944 8.45381 10.6447 8.65762L10.7531 9.10908C10.7786 9.21423 10.7989 9.31996 10.8192 9.42586C10.8281 9.47193 10.8369 9.51803 10.8462 9.56413C10.9039 9.86829 10.9569 10.1748 10.9946 10.4814C11.0926 11.472 11.0762 12.4654 11.0597 13.4595C11.0544 13.7812 11.0491 14.103 11.0477 14.4248C11.0323 15.1576 10.9558 15.8881 10.8698 16.615C10.8509 16.797 10.8344 16.979 10.8215 17.1622C10.8038 17.3443 10.7873 17.5263 10.7767 17.7107C10.7661 17.8951 10.7614 18.0795 10.7626 18.2663C10.7626 18.3597 10.7661 18.4543 10.7696 18.5477C10.7708 18.6412 10.7743 18.7346 10.779 18.8292C10.8038 19.3453 10.706 19.847 10.5234 20.326C10.4495 20.5329 10.366 20.7372 10.2826 20.9411C10.269 20.9744 10.2554 21.0076 10.2418 21.0409C10.1997 21.1432 10.1549 21.2443 10.1102 21.3451C10.0512 21.4782 9.99248 21.6109 9.94021 21.7451C9.78587 22.1307 10.4963 22.6156 11.8276 23.012C13.0226 23.3677 13.2053 23.0151 13.3298 22.7748C13.3386 22.7578 13.3471 22.7414 13.3557 22.7258C14.1886 21.2098 14.5291 19.5225 14.7082 17.8376C14.7458 17.4675 14.8123 16.9941 14.8712 16.5753ZM6.39719 24.1296L6.50794 23.7309C6.51848 23.6907 6.50986 23.6475 6.50208 23.6085C6.49593 23.5777 6.4903 23.5494 6.49498 23.5273C6.54799 23.3764 6.59747 23.2219 6.64342 23.065C6.69055 22.9082 6.7365 22.7501 6.76595 22.5872C6.83193 22.2627 6.88966 21.931 6.94267 21.5981C6.95099 21.5417 6.96012 21.4855 6.96923 21.4293C6.98721 21.3184 7.00517 21.2076 7.0169 21.0964L7.06638 20.591C7.10054 20.2545 7.13471 19.9204 7.17712 19.5899C7.19824 19.348 7.1712 19.1027 7.14426 18.8583C7.13222 18.7491 7.12021 18.6401 7.11251 18.5316C7.17934 18.3686 7.16866 18.2021 7.13707 18.0356C7.12391 17.9576 7.10157 17.8798 7.07931 17.8023C7.05372 17.7133 7.02824 17.6246 7.0169 17.5362C6.95869 17.1642 6.93328 16.7936 6.90793 16.4237C6.89223 16.1947 6.87656 15.9661 6.85313 15.7376L6.79187 14.8406C6.78838 14.7298 6.7739 14.6196 6.75945 14.5095C6.75439 14.471 6.74933 14.4325 6.74474 14.394L6.68466 13.9485C6.41015 12.0157 5.95303 10.0985 5.19548 8.30111C5.15487 8.21077 5.14013 8.11027 5.12542 8.00991C5.11068 7.90939 5.09596 7.80901 5.05528 7.71912C4.97399 7.5407 4.78784 7.40298 4.2942 7.41137C4.28124 7.41137 4.26004 7.41017 4.24943 7.40897C4.07569 7.39358 3.84264 7.48779 3.61083 7.5815C3.49996 7.62631 3.38938 7.67101 3.28571 7.70356C2.55761 7.93467 2.09696 8.13346 1.86133 8.31069C1.6257 8.48911 1.61746 8.64479 1.8036 8.81004C1.8776 8.87654 1.86667 8.98272 1.85611 9.08524C1.85507 9.09534 1.85404 9.10541 1.85308 9.1154C1.83517 9.29421 1.89663 9.52051 1.95069 9.71955C1.97483 9.80843 1.9975 9.89188 2.01096 9.96323C2.04279 10.0998 2.14098 10.223 2.2375 10.344C2.33389 10.4648 2.42862 10.5836 2.45394 10.7117C2.5054 10.937 2.52112 11.1725 2.5367 11.4061C2.53967 11.4505 2.54263 11.4949 2.54583 11.5391L2.5906 12.369C2.58825 12.648 2.58943 12.9234 2.60238 13.1953C2.60987 13.3687 2.62638 13.5397 2.64287 13.7104C2.65234 13.8085 2.6618 13.9065 2.66954 14.0048C2.70253 14.3149 2.75672 14.6239 2.82152 14.9316C2.84508 15.0274 2.86035 15.1241 2.87569 15.2212C2.88489 15.2795 2.89412 15.3379 2.90517 15.3963L2.99117 15.8633L3.08307 16.3327C3.1047 16.4402 3.11707 16.5477 3.12944 16.6552C3.13526 16.7058 3.14108 16.7563 3.14787 16.8069C3.18557 17.1231 3.21738 17.4416 3.23623 17.7613C3.23858 18.1004 3.22453 18.4383 3.21044 18.7773L3.21031 18.7804L3.19853 19.0355C3.19499 19.1205 3.1891 19.2055 3.17732 19.2893L3.11605 19.7959L3.05597 20.3024L3.02652 20.5551L2.98293 20.8066C2.9252 21.1407 2.87218 21.4772 2.82859 21.8149C2.69074 22.5597 2.49753 23.2938 2.2619 24.0111C2.20771 24.1919 2.15587 24.3739 2.10756 24.5571C2.09622 24.5932 2.08477 24.6292 2.07332 24.6653C2.0277 24.809 1.98194 24.9531 1.94145 25.0996C1.88961 25.2828 1.84366 25.4684 1.8036 25.6564L1.74705 25.9414C1.72467 26.0348 1.70346 26.1294 1.68461 26.2252C1.63277 26.4875 1.54794 26.7366 1.44191 26.9773C1.43051 27.0017 1.41935 27.0262 1.40819 27.0508C1.36516 27.1456 1.32201 27.2406 1.26401 27.3281C1.1945 27.4395 1.12028 27.5485 1.04488 27.6562C0.912588 27.8449 0.773157 28.0272 0.634355 28.2087C0.613694 28.2357 0.593047 28.2627 0.572439 28.2897C0.522826 28.3588 0.466291 28.4228 0.40988 28.4867C0.379219 28.5214 0.348594 28.5561 0.319138 28.5915C0.233134 28.6909 0.149485 28.7915 0.0681929 28.8921C-0.0661157 29.0585 0.00103989 29.3112 0.24256 29.6261C0.48408 29.9411 0.898786 30.3183 1.47136 30.717C2.49787 31.4369 2.79538 31.1227 2.99824 30.9085C3.01237 30.8935 3.02605 30.8791 3.03948 30.8655C3.20442 30.6991 3.36582 30.5278 3.52134 30.3518C3.60145 30.2656 3.67332 30.1734 3.74165 30.08C3.81116 29.9866 3.87949 29.892 3.94665 29.7974C4.08214 29.607 4.21291 29.413 4.33897 29.2166L4.52629 28.9196C4.57048 28.8441 4.61069 28.7667 4.6509 28.6892C4.6643 28.6634 4.67769 28.6376 4.69124 28.6118C4.9033 28.1975 5.11066 27.7772 5.29327 27.3485C5.46057 26.9126 5.61844 26.4731 5.77277 26.0336C5.78332 26.003 5.79435 25.9719 5.80556 25.9403C5.81187 25.9224 5.81824 25.9045 5.82461 25.8863C5.83291 25.8591 5.84155 25.8312 5.85035 25.8027C5.8578 25.7786 5.86536 25.7542 5.87292 25.7295C5.88343 25.6967 5.89405 25.6634 5.90478 25.6299C5.92894 25.5543 5.95366 25.4769 5.97895 25.399C6.05435 25.175 6.13211 24.9439 6.20515 24.726C6.21101 24.709 6.21686 24.6922 6.22266 24.6754C6.29157 24.4765 6.3559 24.2909 6.39719 24.1296Z" fill="#263238"/>
</svg>
