<svg width="13" height="31" viewBox="0 0 13 31" fill="none" xmlns="http://www.w3.org/2000/svg">
<path fill-rule="evenodd" clip-rule="evenodd" d="M3.793 18.0124C3.79776 17.956 3.80178 17.9082 3.80518 17.8708C3.80797 17.835 3.79522 17.7994 3.78335 17.7664C3.77174 17.734 3.76097 17.704 3.76645 17.6785C3.82727 17.3581 3.87627 17.0298 3.92598 16.6967C3.97123 16.3935 4.01707 16.0863 4.07296 15.7776C4.17477 15.1287 4.32194 14.4763 4.50231 13.8498C4.55321 13.6845 4.58862 13.5113 4.61629 13.3358C4.62337 13.2909 4.63001 13.2458 4.63667 13.2006C4.65582 13.0705 4.67506 12.9399 4.70499 12.8123C4.84412 12.6281 4.86431 12.403 4.8846 12.1767C4.8954 12.0564 4.90622 11.9358 4.93498 11.8208C5.20075 10.6954 5.71871 9.65026 6.23821 8.60198C6.27892 8.51986 6.31963 8.43771 6.36023 8.3555C7.06249 6.93998 7.86616 5.55683 8.67956 4.15694C8.9274 3.73041 9.17614 3.30231 9.42319 2.87128C9.47731 2.77679 9.55363 2.69722 9.62975 2.61785C9.85717 2.38075 10.0829 2.14544 9.70979 1.51935C9.70315 1.50922 9.6943 1.4901 9.68987 1.47998C9.61848 1.32124 9.42762 1.18434 9.23723 1.04778C9.14434 0.981148 9.05156 0.914598 8.97282 0.845628C7.87843 -0.111524 7.4181 -0.235245 7.28421 0.368739C7.25769 0.485522 7.15885 0.559786 7.06114 0.633195C7.04874 0.642506 7.03637 0.651803 7.02416 0.661171C6.79874 0.832768 6.55103 1.18644 6.37622 1.43603C6.35624 1.46456 6.33722 1.49172 6.31928 1.5171C6.21191 1.66716 6.154 1.86089 6.09727 2.05066C6.04174 2.23639 5.98735 2.41834 5.88883 2.55186C5.62032 2.91385 5.33493 3.26851 5.04797 3.62512C4.42905 4.39427 3.80279 5.17253 3.32271 6.05316C2.91329 6.79549 2.59238 7.5963 2.30025 8.40611C2.11923 8.91194 1.95447 9.42472 1.78974 9.93743C1.68964 10.249 1.58955 10.5605 1.48582 10.8704C1.46514 10.9349 1.44444 10.9993 1.42375 11.0637C1.16206 11.8784 0.9008 12.6918 0.681351 13.536C0.640529 13.6877 0.605681 13.8408 0.570796 13.9941C0.553672 14.0694 0.536539 14.1447 0.518686 14.2199L0.44012 14.5629L0.37594 14.9093C0.365936 14.9657 0.355668 15.022 0.345394 15.0784C0.313619 15.2527 0.281787 15.4274 0.257538 15.6033C0.22766 15.8373 0.199996 16.0701 0.173439 16.304C0.0738482 17.3478 -0.0179964 18.396 0.00302826 19.4555C0.0262661 20.5128 0.180078 21.5824 0.544137 22.5936C0.608318 22.7668 0.663646 22.94 0.713441 23.1143C0.726721 23.1579 0.740208 23.2014 0.753695 23.2449C0.794153 23.3755 0.83461 23.506 0.869466 23.6384C0.960186 23.9927 1.0509 24.348 1.14162 24.7033L1.14168 24.7036L1.20586 24.9735C1.21877 25.0294 1.23501 25.0841 1.25125 25.1387C1.26148 25.1731 1.27171 25.2076 1.28111 25.2423L1.43381 25.7822C1.4704 25.9256 1.52069 26.0642 1.57121 26.2033C1.58487 26.2409 1.59854 26.2786 1.61197 26.3164C1.67615 26.4941 1.74254 26.6707 1.81226 26.8462C1.93951 27.1307 2.22722 27.2657 2.60898 27.2342C2.99296 27.2039 3.47542 27.0059 4.02759 26.655C5.019 26.0173 4.88886 25.6265 4.80119 25.3633C4.79531 25.3457 4.78963 25.3286 4.78448 25.312C4.55764 24.4482 4.34739 23.6182 4.16481 22.7724C3.98555 21.9277 3.82731 21.0695 3.75095 20.1844C3.72108 19.802 3.70559 19.3104 3.73214 18.8684C3.73657 18.7582 3.74099 18.6525 3.74542 18.5512C3.75053 18.4852 3.75661 18.4211 3.76237 18.3603C3.76535 18.3289 3.76824 18.2984 3.77087 18.2689C3.77958 18.1716 3.78689 18.0849 3.793 18.0124ZM9.84912 24.0218C9.84886 23.9477 9.84865 23.8875 9.84622 23.8469C9.84565 23.8232 9.82927 23.8009 9.8141 23.7803C9.79977 23.7609 9.78653 23.7429 9.78868 23.7265C9.82404 23.38 9.83289 23.0202 9.84183 22.6561C9.85388 22.1658 9.86613 21.6676 9.9436 21.1835C9.96911 21.0462 9.95896 20.9023 9.94876 20.7575C9.94264 20.6706 9.93649 20.5835 9.93803 20.4972C10.0363 20.3734 10.0095 20.2242 9.98256 20.0739C9.9684 19.9949 9.95418 19.9156 9.95798 19.8394C9.98238 19.0632 10.2691 18.3448 10.5501 17.6407C10.5623 17.6103 10.5744 17.5799 10.5865 17.5495C11.0712 16.3494 11.7484 15.2471 12.5197 14.2191C12.5597 14.1666 12.6192 14.1328 12.6784 14.0992C12.7371 14.0659 12.7954 14.0328 12.8339 13.9818C12.9169 13.884 12.9202 13.713 12.7089 13.3047C12.7034 13.2946 12.6956 13.2766 12.6923 13.2676C12.6323 13.1207 12.475 12.9466 12.3178 12.7726C12.2402 12.6868 12.1628 12.601 12.097 12.5185C11.6466 11.9472 11.3301 11.5929 11.1011 11.4444C10.8731 11.2959 10.7315 11.3522 10.6529 11.585C10.6252 11.6694 10.5405 11.7022 10.456 11.7349C10.4392 11.7414 10.4225 11.7479 10.4061 11.7548C10.176 11.8482 9.90708 12.1249 9.75327 12.2947C9.657 12.3959 9.60499 12.5433 9.5563 12.6861L9.55205 12.6998C9.50826 12.8412 9.46618 12.9769 9.38257 13.0663C9.2664 13.1897 9.14866 13.3128 9.03043 13.4364C8.7759 13.7025 8.51906 13.9711 8.27048 14.2506C7.91638 14.6645 7.57998 15.1043 7.3465 15.5958C7.06764 16.1627 6.89945 16.7768 6.76666 17.3909C6.68592 17.7688 6.62474 18.148 6.56398 18.5245C6.52563 18.7621 6.48746 18.9987 6.44465 19.2332C6.43153 19.3116 6.41834 19.3899 6.40516 19.4682C6.30942 20.0369 6.2141 20.6031 6.14698 21.1745C6.07616 21.8246 6.02969 22.4803 6.05846 23.1349C6.06487 23.2756 6.07059 23.4163 6.0763 23.557C6.10015 24.1443 6.12401 24.7317 6.19899 25.3169C6.29084 26.0401 6.47342 26.7588 6.81535 27.4179C6.8751 27.5304 6.926 27.644 6.97027 27.7598C7.01895 27.8746 7.06211 27.9904 7.09973 28.1085C7.17055 28.3458 7.23695 28.5854 7.29227 28.8306C7.32023 28.9665 7.35219 29.1014 7.3843 29.2369C7.41066 29.3481 7.43713 29.4598 7.46158 29.5729C7.52023 29.8215 7.59437 30.0667 7.67183 30.3108C7.74265 30.5087 7.98277 30.5818 8.3413 30.52C8.70093 30.4592 9.18118 30.2624 9.75327 29.9452C10.7777 29.3699 10.7251 29.0867 10.6896 28.8951C10.6871 28.8818 10.6847 28.8689 10.6828 28.8565C10.6031 28.2322 10.4836 27.6564 10.3508 27.085C10.3105 26.9107 10.2686 26.7368 10.2267 26.5627C10.1317 26.1686 10.0366 25.7738 9.95909 25.372C9.93669 25.2757 9.92368 25.1664 9.91014 25.0527C9.90629 25.0203 9.90239 24.9876 9.89823 24.9548C9.8772 24.8063 9.86946 24.6511 9.86282 24.506C9.85017 24.3217 9.84957 24.1506 9.84912 24.0218Z" fill="#263238"/>
</svg>
