<svg height="15" viewBox="0 0 689 15" fill="none" xmlns="http://www.w3.org/2000/svg">
<path d="M94.6473 6.90219C141.416 7.00769 247.627 7.25383 368.685 7.53012C429.219 7.66073 493.464 7.80641 555.858 8.05758C587.055 8.17815 617.78 8.32885 647.361 8.51974C654.758 8.575 662.077 8.63025 669.335 8.72068C671.151 8.74579 672.968 8.77593 674.776 8.80105L677.527 8.86133C678.008 8.8764 678.435 8.88645 679.047 8.92161L679.326 8.94171C679.475 8.9618 679.466 8.93668 680.034 9.03213C682.488 8.54486 679.964 15.1758 679.641 12.644C679.492 12.659 679.3 12.6791 679.23 12.6842C678.855 12.7093 678.619 12.7193 678.366 12.7294C676.444 12.7897 674.689 12.8148 672.89 12.8399C671.108 12.86 669.326 12.8801 667.553 12.8951C653.405 13.0157 639.667 13.0509 626.382 13.076C503.508 13.0057 380.624 12.9353 257.767 12.865L165.626 12.7947C150.264 12.7947 134.919 12.7294 119.6 12.8298C104.272 12.9253 88.9267 13.0911 73.6078 13.3422L62.1404 13.5633L59.302 13.6386L57.9133 13.6838L57.3718 13.7089L57.1185 13.714C56.2539 11.4635 56.577 12.1065 56.9002 10.067L57.433 10.077L58.1142 10.082H59.5203L62.3762 10.072L85.3896 9.91625C100.743 9.81076 116.115 9.72034 131.495 9.74043C162.203 9.81076 192.902 9.87606 223.601 9.94639C346.406 10.2478 469.175 10.5442 591.875 10.8456L614.889 10.9611C622.566 11.0063 630.217 11.0114 637.928 11.1269L640.828 11.1771C641.824 11.1972 642.723 11.2123 643.885 11.2676C644.156 11.2977 643.972 11.2424 644.88 11.373C645.038 17.9035 643.806 13.3272 643.99 14.7438C643.64 14.7639 643.396 14.7689 643.134 14.7789L641.64 14.8141C640.653 14.8392 639.71 14.8241 638.749 14.8342L604.208 14.9095C588.862 14.9296 573.5 15.005 558.163 14.9849L512.172 14.9497C450.852 14.8945 389.55 14.8392 328.274 14.784C289.968 14.7337 238.247 14.6634 196.43 14.6081C185.976 14.573 176.142 14.5378 167.294 14.5077C162.866 14.4825 158.692 14.4574 154.805 14.4373C150.927 14.4323 147.338 14.4323 144.089 14.4273C143.285 14.4323 142.499 14.4373 141.731 14.4424C141.355 14.4474 140.988 14.4524 140.63 14.4574L140.15 14.4725C140.133 14.4725 140.08 14.4775 140.098 14.4725L139.914 13.9049C139.888 13.8295 139.844 13.7491 139.792 13.6788C139.818 13.6386 139.722 13.5884 139.722 13.5884C139.836 13.5331 139.993 13.0509 140.08 12.6992L140.141 12.7043C140.718 12.7444 141.478 12.7696 142.124 12.7947C142.796 12.8148 143.451 12.8399 144.08 12.86C146.613 12.9404 148.761 13.0107 150.491 13.0659C153.949 13.1915 155.696 13.3221 155.364 13.4628C155.024 13.6085 153.364 13.7441 150.456 13.8596C148.997 13.9199 147.233 13.9702 145.163 14.0103C144.124 14.0304 143.015 14.0505 141.827 14.0556C141.224 14.0556 140.63 14.0606 139.949 14.0455C139.862 14.0405 139.774 14.0405 139.643 14.0304C139.6 14.0254 139.582 14.0254 139.504 14.0154C139.434 14.0053 139.364 13.9852 139.303 13.9651C139.137 14.2163 138.779 13.076 139.137 13.282C139.224 13.2116 139.504 13.1513 139.469 13.1614L139.547 13.1463L139.661 13.1312C139.888 13.1061 140.036 13.0961 140.211 13.086C140.543 13.0659 140.875 13.0509 141.216 13.0308C151.897 12.5686 167.207 12.4481 186.64 12.2371C225.496 11.8252 280.693 11.7297 347.506 11.7599C387.934 11.785 428.398 11.8101 468.87 11.8402C489.106 11.8553 509.351 11.8704 529.587 11.8804C549.831 11.8955 570.085 11.9256 590.303 11.8553L639.605 11.7448C640.863 11.7498 642.164 11.7197 643.282 11.6845L643.448 11.6745C643.404 11.2876 643.562 12.217 643.85 12.86C644.147 12.8349 643.466 13.8396 643.466 14.3469L643.335 14.3369L642.487 14.3067L640.636 14.2615L636.872 14.2012C631.832 14.1309 626.767 14.1058 621.71 14.0857L576.164 13.8747C535.665 13.7742 495.176 13.6738 454.695 13.5733C373.733 13.3874 292.824 13.2066 212.046 13.0207C191.854 12.9805 171.661 12.9404 151.486 12.9002C141.399 12.8901 131.303 12.8449 121.242 12.865C111.163 12.8851 101.093 12.9454 91.0141 13.0157C80.9267 13.086 70.8479 13.1564 60.7692 13.2267C59.4941 13.2267 58.2627 13.2367 56.9089 13.2166L56.6294 13.2116C56.5072 13.2066 56.4548 13.2066 56.184 13.1865C54.6294 13.5231 56.7342 8.49965 56.2626 10.6095L56.5421 10.5944C56.9002 10.5743 57.3369 10.5492 57.6338 10.5392L59.5552 10.4789L67.1361 10.3081L82.2542 10.0519C102.403 9.76053 122.543 9.56964 142.683 9.58471C260.378 9.61987 378.022 9.65503 495.639 9.68517C525.045 9.69522 554.443 9.70527 583.841 9.71531L627.928 9.71029C642.618 9.67513 657.326 9.63996 671.972 9.47921C673.798 9.4541 675.641 9.434 677.405 9.38377L678.042 9.36367L678.331 9.3486C678.435 9.434 678.462 9.13762 678.54 9.53949C679.064 11.1369 679.178 10.4588 678.584 11.9256C678.409 12.5937 678.462 12.1065 678.339 12.2471L677.737 12.222C676.872 12.1919 675.955 12.1718 675.056 12.1567C671.414 12.0914 667.745 12.0512 664.077 12.011L642.051 11.8352L597.972 11.5991L509.805 11.2575C392.24 10.9963 274.693 10.7351 157.146 10.4739L85.5119 10.2779C83.6865 10.2729 81.8874 10.2779 80.0708 10.3031C76.4375 10.3432 72.7956 10.4337 69.1361 10.5341C65.4592 10.6296 61.8609 10.7753 57.9832 10.7954C57.4679 10.7903 56.9788 10.7903 56.481 10.7702C56.219 10.7602 55.9744 10.7552 55.5901 10.73C56.8303 9.93635 52.5159 12.6992 54.7604 7.75618C55.4417 7.62557 55.4329 7.65571 55.6513 7.62557C56.2626 7.57533 56.708 7.55022 57.2059 7.5251L58.6207 7.45979C60.4897 7.38444 62.3326 7.32919 64.1754 7.27393C71.5554 7.06797 78.9092 6.93736 86.2717 6.84191C93.6342 6.74647 101.023 6.7113 108.359 6.7314L130.403 6.74144C189.181 6.76154 247.959 6.78163 306.746 6.80675C359.532 6.82684 412.319 6.84191 465.106 6.86201L544.294 6.89215C570.688 6.90722 597.081 6.91726 623.474 6.84694C636.671 6.8168 649.867 6.77661 663.047 6.68619L672.916 6.59576L677.824 6.52041C678.601 6.4953 679.448 6.48023 680.173 6.45511L680.392 6.44506C680.383 6.03816 680.462 6.77158 680.872 7.74613C681.309 7.65068 680.322 9.15269 680.427 9.44405L680.252 9.434C679.929 9.41391 679.518 9.40386 679.125 9.38879C672.654 9.22804 666.007 9.18283 659.431 9.1125C652.837 9.0472 646.243 9.00199 639.64 8.99194L382.301 8.148L105.154 7.83153C91.9399 7.82148 78.7869 7.76622 65.6077 7.89683L45.8258 8.09777C39.2144 8.15805 32.6379 8.2535 25.9304 8.20326C25.0832 8.19322 24.2448 8.18819 23.3889 8.16307C22.961 8.15303 22.5243 8.13796 22.0614 8.11786C21.8256 8.10782 21.5985 8.09777 21.3103 8.07265C21.1793 8.06261 21.0133 8.04753 20.8212 8.02744C20.3408 7.86167 20.9522 8.29368 19.0395 7.47989C19.2404 3.0442 20.6989 5.6815 20.5242 4.84259C20.7601 4.8024 20.8998 4.78733 21.057 4.76724C21.3365 4.73709 21.581 4.71198 21.8081 4.69691C22.2797 4.66174 22.7077 4.6316 23.1444 4.60649C24.0003 4.55625 24.8474 4.51606 25.6859 4.4809C29.0309 4.33522 32.341 4.23978 35.6598 4.1594C42.2887 3.99865 48.9001 3.90321 55.5203 3.84795C62.1492 3.78767 68.7344 3.80776 75.3371 3.79771L253.496 3.74748C344.109 3.76255 434.721 3.77762 525.316 3.78767C570.618 3.77762 615.919 3.84795 661.195 3.67715L678.156 3.57166C680.968 3.54654 683.807 3.51138 686.54 3.44607C686.846 3.43603 687.248 3.42096 687.353 3.41091C687.457 4.53616 688.165 5.1239 687.789 5.26958C687.519 5.87741 687.239 7.19858 687.309 6.73642L686.907 6.71633C686.27 6.69121 685.571 6.67614 684.881 6.66107L680.68 6.59074C669.405 6.44506 658.068 6.44506 646.75 6.39483L612.793 6.27426L578.819 6.23408C397.638 5.8322 216.465 6.27426 35.3017 6.3898L35.1969 2.61721C52.2451 2.24045 69.3719 1.86872 86.4813 1.66276C95.0404 1.55726 103.599 1.48694 112.167 1.46182L137.801 1.44172C223.374 1.36637 308.912 1.44675 394.458 1.48694L586.932 1.6075L655.003 1.45177C655.667 1.44675 656.348 1.45177 656.994 1.4367L657.946 1.41661L658.374 1.40154L658.523 1.39149C658.461 1.30107 659.047 3.37072 659.029 3.10448C658.82 3.23007 658.418 5.28967 658.505 4.75719L658.348 4.74714L657.911 4.73207L656.959 4.70695L654.985 4.67179L651.003 4.61653L634.994 4.47588C624.313 4.40052 613.622 4.35029 602.924 4.34527L538.766 4.23475C495.988 4.16442 453.219 4.0941 410.441 4.01874L346.275 3.91325C324.886 3.88814 303.506 3.9233 282.108 3.96851C239.321 4.09912 196.535 4.22973 153.748 4.36034C113.451 4.47085 69.0401 4.59644 23.6509 4.45578C17.974 4.43569 12.2883 4.4156 6.56776 4.35531C5.10923 4.33522 3.74677 4.3302 2.1485 4.27494L1.77295 4.25485C1.69434 4.24982 1.61574 4.2448 1.41486 4.22471C1.06551 4.10414 1.65941 4.44071 0 3.81278C0.113538 -0.909241 1.03058 2.12491 0.716165 1.21567C0.969443 1.16041 1.23145 1.1152 1.5022 1.08004C1.63321 1.06497 1.77295 1.0499 1.90395 1.03483C2.03496 1.02478 2.2009 1.00971 2.20963 1.01473L3.34502 0.964499L5.52844 0.889147L14.1224 0.668116C25.5549 0.416945 36.9873 0.236101 48.4023 0.120562C54.1054 0.0653046 59.7998 0.0200937 65.4854 0.0100469C71.1536 0.00502343 76.8043 0.00502343 82.4376 0C93.7041 0 104.883 0 115.923 0C188.98 0.0401874 310.798 0.105492 383.201 0.140656C414.45 0.185867 446.887 0.241125 477.481 0.200937C618.085 0.0200937 655.239 0.432015 608.199 1.72806C597.849 2.0144 609.788 2.38613 575.797 2.58204C574.391 2.59209 571.587 2.60716 570.303 2.61721C467.245 3.39584 361.489 3.02411 254.972 3.03415C191.059 3.0442 127.146 3.04922 63.2321 3.05927C47.2844 3.1095 31.3191 3.32551 15.3801 3.64701C11.415 3.73743 7.37999 3.81781 3.50222 3.96349L2.80352 3.99363C2.59392 4.00367 2.72492 4.00367 2.83846 3.97856C3.42362 4.39048 2.49784 3.56161 2.03496 2.42632C2.55025 0.592765 2.3057 1.51708 2.49784 1.286L2.82099 1.29605L3.52842 1.31614L6.48042 1.36135L12.4543 1.41661L36.4021 1.5221C68.3501 1.6075 100.307 1.59243 132.255 1.51205C196.159 1.35633 260.081 0.989616 324.021 0.914264L611.701 1.2006C619.693 1.21065 627.684 1.26088 635.684 1.30609L647.684 1.39651L653.693 1.46182L656.715 1.51205L658.26 1.55224C658.54 1.56229 658.776 1.56731 659.169 1.59243C659.623 -0.909241 660.243 5.17413 659.274 4.55123C659.029 4.57132 658.889 4.57634 658.741 4.58137C657.623 4.62156 656.645 4.64165 655.64 4.64165L586.644 4.83756L131.18 4.84259C123.198 4.85263 115.189 4.83756 107.224 4.87775C99.25 4.91794 91.2674 4.99831 83.2935 5.10381C67.3283 5.31479 51.3979 5.66643 35.4065 6.01807L35.3192 3.00401L69.8261 2.97387C150.037 2.90354 230.273 2.83824 310.51 2.76791L400.773 2.70261L430.861 2.74782C470.975 2.8081 511.097 2.86838 551.203 2.92866L611.369 3.01406C631.431 3.09443 651.492 3.17481 671.544 3.25016C676.584 3.29537 681.545 3.32551 686.68 3.45612L687.719 3.49631L688.043 3.5164C688.252 3.54654 688.104 3.48124 688.986 3.65203C689.143 9.33353 687.938 5.41526 688.13 6.63093L687.781 6.65102C687.021 6.68619 686.418 6.69623 685.772 6.7113C684.488 6.74144 683.222 6.76154 681.964 6.77661L674.418 6.85196C664.374 6.92229 654.357 6.95243 644.33 6.97754C624.278 6.99262 604.234 7.00769 584.19 7.02778C504.032 7.02276 423.909 7.01773 343.855 7.01271C256.186 7.04787 168.473 7.07801 79.4856 7.11318H81.0053L63.599 7.13327C57.8085 7.14332 52.0268 7.19858 46.2538 7.289C40.4808 7.37942 34.6991 7.49998 28.9697 7.70092C27.5374 7.75115 26.1138 7.81143 24.7164 7.88176C24.0265 7.91693 23.319 7.95711 22.6989 8.00735L22.2797 8.04251L22.1487 8.05758H22.1225C22.1575 8.11786 22.0876 7.94707 22.0177 7.78129C21.9478 7.62557 21.8692 7.47486 21.7819 7.31914C21.6771 7.14834 21.6684 7.07299 21.5898 6.95243C21.5286 6.84694 21.4238 6.72135 21.3627 6.64098C21.3277 6.57065 21.2579 6.50534 21.1705 6.45009C21.1618 6.4099 21.057 6.42497 21.1356 6.4099C21.1269 6.39985 21.2841 6.31948 21.2928 6.26422C21.2928 6.21901 21.4326 6.07333 21.4762 5.98291C21.5461 5.86737 21.5548 5.78699 21.6247 5.64131C21.7732 5.34995 21.8867 5.01841 21.9566 4.74714L22.2448 4.76724C23.4326 4.83254 24.9348 4.84761 26.3322 4.86268C27.747 4.87273 29.1881 4.87775 30.6204 4.87273C42.1489 4.82249 53.791 4.6316 65.4068 4.53616C71.2235 4.48592 77.0402 4.44574 82.8568 4.44071L100.289 4.45076C146.727 4.49095 193.155 4.53113 239.575 4.57132C283.488 4.62156 327.646 4.67179 371.952 4.72202C416.267 4.85766 460.739 4.99329 505.281 5.13395C549.823 5.2746 594.426 5.42028 639.003 5.56094C650.147 5.57601 661.291 5.69155 672.462 5.82718L676.662 5.89751L678.785 5.94272L679.877 5.97286C680.261 5.98793 680.601 5.99798 681.108 6.02812C681.274 6.04319 681.335 6.03816 681.789 6.09844C684.174 5.72169 680.977 12.7294 681.466 9.83085C681.029 9.87104 680.89 9.87104 680.654 9.88611C680.235 9.90621 679.894 9.91123 679.527 9.92128C678.802 9.94137 678.069 9.96146 677.37 9.97151L673.152 10.0318C667.553 10.0971 661.981 10.1323 656.409 10.1674C634.12 10.283 611.876 10.3181 589.648 10.3382C500.765 10.3031 412.328 10.2679 325.034 10.2378C281.392 10.2126 238.038 10.1925 195.059 10.1674C173.574 10.1524 152.176 10.1423 130.884 10.1272C120.246 10.1222 109.626 10.1172 99.0404 10.1122C88.4988 10.1574 77.9572 10.3031 67.4855 10.5593C65.8435 10.6045 64.123 10.6547 62.3413 10.7049C60.5858 10.7652 58.6731 10.8255 56.9526 10.931L56.6731 10.9511L56.5683 10.9611L56.5421 10.9661L56.5072 10.8657L56.3587 10.4337C56.1578 9.87606 55.9307 9.41893 55.7735 9.24814C55.7299 9.1979 55.6775 9.1979 55.7124 9.19288C55.7386 9.18283 55.791 9.12255 55.8172 9.06729C55.8696 8.98692 55.8958 8.92664 55.9395 8.83119C55.9832 8.73072 56.0268 8.63025 56.053 8.52476C56.1491 8.26354 56.1928 8.04251 56.2888 7.72101L56.3412 7.49496L56.3587 7.40454H56.3674L56.4548 7.40956C56.7779 7.42463 57.3019 7.43468 57.7124 7.43468C58.5771 7.44472 59.5727 7.42463 60.5596 7.40454C62.5858 7.34928 64.6645 7.289 66.7868 7.22872C71.075 7.09811 75.5903 6.9675 80.2891 6.91224C85.014 6.84694 89.7652 6.89717 94.6473 6.90219Z" fill="#4633FF"/>
</svg>
